<svg width="120" height="120" viewBox="0 0 120 120" fill="none" xmlns="http://www.w3.org/2000/svg">
    <circle cx="60" cy="60" r="60" fill="url(#paint0_radial_45_212)"/>
    <circle cx="60" cy="60" r="59.5" stroke="url(#paint1_linear_45_212)" stroke-opacity="0.6"/>
    <path d="M53.889 31.5201C54.2099 30.6467 55.4453 30.6467 55.7663 31.5201L63.285 51.9833C63.3862 52.2588 63.6033 52.4759 63.8788 52.5771L84.342 60.0958C85.2155 60.4168 85.2155 61.6522 84.342 61.9731L63.8788 69.4919C63.6033 69.5931 63.3862 69.8102 63.285 70.0856L55.7663 90.5488C55.4453 91.4223 54.2099 91.4223 53.889 90.5488L46.3702 70.0856C46.269 69.8102 46.0519 69.5931 45.7765 69.4919L25.3133 61.9731C24.4398 61.6522 24.4398 60.4168 25.3133 60.0958L45.7765 52.5771C46.0519 52.4759 46.269 52.2588 46.3702 51.9833L53.889 31.5201Z" fill="white"/>
    <path d="M84.3583 28.1739C84.5188 27.7371 85.1365 27.7371 85.2969 28.1739L88.0834 35.7576C88.134 35.8954 88.2426 36.0039 88.3803 36.0545L95.9641 38.841C96.4008 39.0015 96.4008 39.6192 95.9641 39.7797L88.3803 42.5662C88.2426 42.6168 88.134 42.7253 88.0834 42.863L85.2969 50.4468C85.1365 50.8836 84.5188 50.8836 84.3583 50.4468L81.5718 42.863C81.5212 42.7253 81.4126 42.6168 81.2749 42.5662L73.6911 39.7797C73.2544 39.6192 73.2544 39.0015 73.6911 38.841L81.2749 36.0545C81.4126 36.0039 81.5212 35.8954 81.5718 35.7576L84.3583 28.1739Z" fill="white"/>
    <defs>
        <radialGradient id="paint0_radial_45_212" cx="0" cy="0" r="1" gradientUnits="userSpaceOnUse" gradientTransform="translate(60 60) rotate(-90) scale(60)">
            <stop offset="0.66" stop-color="#008080"/>
            <stop offset="1" stop-color="#38D6D6"/>
        </radialGradient>
        <linearGradient id="paint1_linear_45_212" x1="60" y1="0" x2="60" y2="120" gradientUnits="userSpaceOnUse">
            <stop stop-color="#008080"/>
            <stop offset="1" stop-color="#14FFFF"/>
        </linearGradient>
    </defs>
</svg>
