<svg width="300" height="300" viewBox="0 0 300 300" fill="none" xmlns="http://www.w3.org/2000/svg">
    <mask id="mask0_12_639" style="mask-type:luminance" maskUnits="userSpaceOnUse" x="14" y="30" width="256" height="256">
        <path d="M14.8281 30H270V285.172H14.8281V30Z" fill="white"/>
    </mask>
    <g mask="url(#mask0_12_639)">
        <mask id="mask1_12_639" style="mask-type:luminance" maskUnits="userSpaceOnUse" x="14" y="30" width="256" height="256">
            <path d="M142.412 30C71.95 30 14.8281 87.1219 14.8281 157.584C14.8281 228.05 71.95 285.172 142.412 285.172C212.878 285.172 270 228.05 270 157.584C270 87.1219 212.878 30 142.412 30Z" fill="white"/>
        </mask>
        <g mask="url(#mask1_12_639)">
            <path d="M14.8281 30H270V285.172H14.8281V30Z" fill="#008080"/>
        </g>
    </g>
    <mask id="mask2_12_639" style="mask-type:luminance" maskUnits="userSpaceOnUse" x="21" y="30" width="243" height="256">
        <path d="M21.0812 30H263.6V285.6H21.0812V30Z" fill="white"/>
    </mask>
    <g mask="url(#mask2_12_639)">
        <mask id="mask3_12_639" style="mask-type:luminance" maskUnits="userSpaceOnUse" x="21" y="30" width="243" height="256">
            <path d="M142.341 30C75.3719 30 21.0812 87.1219 21.0812 157.584C21.0812 228.05 75.3719 285.172 142.341 285.172C209.309 285.172 263.6 228.05 263.6 157.584C263.6 87.1219 209.309 30 142.341 30Z" fill="white"/>
        </mask>
        <g mask="url(#mask3_12_639)">
            <path d="M21.0812 30H263.6V284.831H21.0812V30Z" fill="white"/>
        </g>
    </g>
    <mask id="mask4_12_639" style="mask-type:luminance" maskUnits="userSpaceOnUse" x="100" y="93" width="68" height="44">
        <path d="M100 93.6H167.2V136.8H100V93.6Z" fill="white"/>
    </mask>
    <g mask="url(#mask4_12_639)">
        <mask id="mask5_12_639" style="mask-type:luminance" maskUnits="userSpaceOnUse" x="69" y="62" width="162" height="176">
            <path d="M69.4031 63.95V236.05C69.4031 236.713 69.9375 237.25 70.6031 237.25H229.397C230.059 237.25 230.597 236.713 230.597 236.05V63.95C230.597 63.2875 230.059 62.75 229.397 62.75H70.6031C69.9375 62.75 69.4031 63.2875 69.4031 63.95Z" fill="white"/>
        </mask>
        <g mask="url(#mask5_12_639)">
            <path d="M100.956 93.7812C101.244 129.919 169.55 100.044 167.041 136.553C162.069 104.953 92.8063 131.688 100.956 93.7812Z" fill="#008080"/>
        </g>
    </g>
    <mask id="mask6_12_639" style="mask-type:luminance" maskUnits="userSpaceOnUse" x="110" y="78" width="68" height="44">
        <path d="M110.4 78.4H177.6V121.6H110.4V78.4Z" fill="white"/>
    </mask>
    <g mask="url(#mask6_12_639)">
        <mask id="mask7_12_639" style="mask-type:luminance" maskUnits="userSpaceOnUse" x="69" y="62" width="162" height="176">
            <path d="M69.4031 63.95V236.05C69.4031 236.713 69.9375 237.25 70.6031 237.25H229.397C230.059 237.25 230.597 236.713 230.597 236.05V63.95C230.597 63.2875 230.059 62.75 229.397 62.75H70.6031C69.9375 62.75 69.4031 63.2875 69.4031 63.95Z" fill="white"/>
        </mask>
        <g mask="url(#mask7_12_639)">
            <path d="M111.378 78.5844C111.669 114.722 179.972 84.8469 177.463 121.359C172.494 89.7562 103.231 116.491 111.378 78.5844Z" fill="#008080"/>
        </g>
    </g>
    <mask id="mask8_12_639" style="mask-type:luminance" maskUnits="userSpaceOnUse" x="92" y="66" width="138" height="142">
        <path d="M92.8 66.4H229.6V207.2H92.8V66.4Z" fill="white"/>
    </mask>
    <g mask="url(#mask8_12_639)">
        <mask id="mask9_12_639" style="mask-type:luminance" maskUnits="userSpaceOnUse" x="69" y="62" width="162" height="176">
            <path d="M69.4031 63.95V236.05C69.4031 236.713 69.9375 237.25 70.6031 237.25H229.397C230.059 237.25 230.597 236.713 230.597 236.05V63.95C230.597 63.2875 230.059 62.75 229.397 62.75H70.6031C69.9375 62.75 69.4031 63.2875 69.4031 63.95Z" fill="white"/>
        </mask>
        <g mask="url(#mask9_12_639)">
            <path d="M93.4781 109.256C90.3281 88.7188 105.544 71.6875 124.972 67.7188C148.988 62.8156 169.278 77.7531 182.975 95.9719C194.347 111.094 196.938 131.056 212.194 143.269C218.594 148.391 230.6 152.122 229.484 162.303C227.5 180.438 197.125 184.103 217.575 206.903C203.997 196.016 205.094 185.503 215.622 175.288C219.531 171.491 225.813 168.088 226.019 161.831C226.294 153.594 213.475 149.841 208.409 145.788C196.634 136.366 193.634 124.416 187.188 111.866C182.153 102.069 175.341 93.2344 167.291 85.7219C156.784 75.9219 144.038 69.6375 129.309 70.7156C108.731 72.2281 92.2 88.1313 93.4781 109.256Z" fill="#008080"/>
        </g>
    </g>
    <mask id="mask10_12_639" style="mask-type:luminance" maskUnits="userSpaceOnUse" x="169" y="134" width="34" height="10">
        <path d="M169.6 134.4H202.4V144H169.6V134.4Z" fill="white"/>
    </mask>
    <g mask="url(#mask10_12_639)">
        <mask id="mask11_12_639" style="mask-type:luminance" maskUnits="userSpaceOnUse" x="69" y="62" width="162" height="176">
            <path d="M69.4031 63.95V236.05C69.4031 236.713 69.9375 237.25 70.6031 237.25H229.397C230.059 237.25 230.597 236.713 230.597 236.05V63.95C230.597 63.2875 230.059 62.75 229.397 62.75H70.6031C69.9375 62.75 69.4031 63.2875 69.4031 63.95Z" fill="white"/>
        </mask>
        <g mask="url(#mask11_12_639)">
            <path d="M169.737 137.116C179.478 133.194 195.897 133.444 201.816 143.869C192.856 137.053 180.416 137.397 169.737 137.116Z" fill="#008080"/>
        </g>
    </g>
    <mask id="mask12_12_639" style="mask-type:luminance" maskUnits="userSpaceOnUse" x="145" y="127" width="51" height="18">
        <path d="M145.6 127.2H196V144.8H145.6V127.2Z" fill="white"/>
    </mask>
    <g mask="url(#mask12_12_639)">
        <mask id="mask13_12_639" style="mask-type:luminance" maskUnits="userSpaceOnUse" x="69" y="62" width="162" height="176">
            <path d="M69.4031 63.95V236.05C69.4031 236.713 69.9375 237.25 70.6031 237.25H229.397C230.059 237.25 230.597 236.713 230.597 236.05V63.95C230.597 63.2875 230.059 62.75 229.397 62.75H70.6031C69.9375 62.75 69.4031 63.2875 69.4031 63.95Z" fill="white"/>
        </mask>
        <g mask="url(#mask13_12_639)">
            <path d="M145.819 127.409C150.488 132.694 155.828 137.747 162.75 139.772C172.478 142.616 188.028 135.35 195.628 143.869C186.619 138.691 175.103 146.041 165.238 144.253C156.138 142.6 149.253 135.859 145.819 127.409Z" fill="#008080"/>
        </g>
    </g>
    <mask id="mask14_12_639" style="mask-type:luminance" maskUnits="userSpaceOnUse" x="139" y="120" width="71" height="57">
        <path d="M139.2 120.8H209.6V176.8H139.2V120.8Z" fill="white"/>
    </mask>
    <g mask="url(#mask14_12_639)">
        <mask id="mask15_12_639" style="mask-type:luminance" maskUnits="userSpaceOnUse" x="69" y="62" width="162" height="176">
            <path d="M69.4031 63.95V236.05C69.4031 236.713 69.9375 237.25 70.6031 237.25H229.397C230.059 237.25 230.597 236.713 230.597 236.05V63.95C230.597 63.2875 230.059 62.75 229.397 62.75H70.6031C69.9375 62.75 69.4031 63.2875 69.4031 63.95Z" fill="white"/>
        </mask>
        <g mask="url(#mask15_12_639)">
            <path d="M139.628 121.359C144.159 133.894 153.063 145.294 166.978 147.503C174.469 148.691 182.184 147.047 189.663 148.422C204.591 151.175 212.166 162.159 207.728 176.794C209.128 162.066 202.206 153.578 187.103 151.844C179.763 151 172.197 152.638 164.919 150.975C150.9 147.778 141.713 135.062 139.628 121.359Z" fill="#008080"/>
        </g>
    </g>
    <mask id="mask16_12_639" style="mask-type:luminance" maskUnits="userSpaceOnUse" x="72" y="155" width="134" height="81">
        <path d="M72.8 155.2H205.6V235.2H72.8V155.2Z" fill="white"/>
    </mask>
    <g mask="url(#mask16_12_639)">
        <mask id="mask17_12_639" style="mask-type:luminance" maskUnits="userSpaceOnUse" x="69" y="62" width="162" height="176">
            <path d="M69.4031 63.95V236.05C69.4031 236.713 69.9375 237.25 70.6031 237.25H229.397C230.059 237.25 230.597 236.713 230.597 236.05V63.95C230.597 63.2875 230.059 62.75 229.397 62.75H70.6031C69.9375 62.75 69.4031 63.2875 69.4031 63.95Z" fill="white"/>
        </mask>
        <g mask="url(#mask17_12_639)">
            <path d="M179.025 157.659C179.522 157.519 179.934 157.181 179.025 157.659C183.691 156.334 187.234 154.572 192.281 155.697C196.341 156.606 200.028 159.012 202.238 162.572C207.438 170.956 204.419 180.325 201 188.647C194.216 205.147 174.025 230.294 151.688 234.166C134.222 237.194 118.713 225.156 108.209 212.497C101.697 204.647 96.3 195.725 92.5375 186.241C83.5938 183.631 69.4063 170.841 74.2031 156.881C71.7156 171.384 84.9 181.275 94.1594 184.406C94.1594 184.406 102.022 199.953 107.541 206.831C117.969 219.831 134.178 234.147 152.184 230.219C159.206 228.687 165.597 224.15 171.059 219.503C185.866 206.903 195.628 192.95 199.394 176.309C201.063 168.944 198.947 159.262 190.422 156.991C186.7 156 182.666 156.625 179.025 157.659Z" fill="#008080"/>
        </g>
    </g>
    <mask id="mask18_12_639" style="mask-type:luminance" maskUnits="userSpaceOnUse" x="101" y="174" width="40" height="39">
        <path d="M101.6 174.4H140.8V212.8H101.6V174.4Z" fill="white"/>
    </mask>
    <g mask="url(#mask18_12_639)">
        <mask id="mask19_12_639" style="mask-type:luminance" maskUnits="userSpaceOnUse" x="69" y="62" width="162" height="176">
            <path d="M69.4031 63.95V236.05C69.4031 236.713 69.9375 237.25 70.6031 237.25H229.397C230.059 237.25 230.597 236.713 230.597 236.05V63.95C230.597 63.2875 230.059 62.75 229.397 62.75H70.6031C69.9375 62.75 69.4031 63.2875 69.4031 63.95Z" fill="white"/>
        </mask>
        <g mask="url(#mask19_12_639)">
            <path d="M102.2 179.891C105.7 192.231 114.084 219.016 130.703 206.05C144.772 195.072 136.45 187.463 131.466 175.106C138.397 187.697 146.481 195.631 132.253 207.741C113.916 223.347 104.212 193.928 102.2 179.891Z" fill="#008080"/>
        </g>
    </g>
    <mask id="mask20_12_639" style="mask-type:luminance" maskUnits="userSpaceOnUse" x="123" y="174" width="10" height="27">
        <path d="M123.2 174.4H132.8V200.8H123.2V174.4Z" fill="white"/>
    </mask>
    <g mask="url(#mask20_12_639)">
        <mask id="mask21_12_639" style="mask-type:luminance" maskUnits="userSpaceOnUse" x="69" y="62" width="162" height="176">
            <path d="M69.4031 63.95V236.05C69.4031 236.713 69.9375 237.25 70.6031 237.25H229.397C230.059 237.25 230.597 236.713 230.597 236.05V63.95C230.597 63.2875 230.059 62.75 229.397 62.75H70.6031C69.9375 62.75 69.4031 63.2875 69.4031 63.95Z" fill="white"/>
        </mask>
        <g mask="url(#mask21_12_639)">
            <path d="M126.356 175.028C125.922 180.638 131.531 183.4 132.028 188.063C132.616 193.566 127.7 196.766 123.725 200.059C126.278 196.547 130.769 193.156 130.569 188.625C130.35 183.659 124.422 181.019 126.356 175.028Z" fill="#008080"/>
        </g>
    </g>
    <mask id="mask22_12_639" style="mask-type:luminance" maskUnits="userSpaceOnUse" x="111" y="178" width="13" height="24">
        <path d="M111.2 178.4H123.2V201.6H111.2V178.4Z" fill="white"/>
    </mask>
    <g mask="url(#mask22_12_639)">
        <mask id="mask23_12_639" style="mask-type:luminance" maskUnits="userSpaceOnUse" x="69" y="62" width="162" height="176">
            <path d="M69.4031 63.95V236.05C69.4031 236.713 69.9375 237.25 70.6031 237.25H229.397C230.059 237.25 230.597 236.713 230.597 236.05V63.95C230.597 63.2875 230.059 62.75 229.397 62.75H70.6031C69.9375 62.75 69.4031 63.2875 69.4031 63.95Z" fill="white"/>
        </mask>
        <g mask="url(#mask23_12_639)">
            <path d="M111.253 179.084C120.288 180.412 124.628 193.487 122.747 201.459C122.459 193.759 118.922 182.375 111.253 179.084Z" fill="#008080"/>
        </g>
    </g>
    <mask id="mask24_12_639" style="mask-type:luminance" maskUnits="userSpaceOnUse" x="138" y="158" width="39" height="51">
        <path d="M138.4 158.4H176.8V208.8H138.4V158.4Z" fill="white"/>
    </mask>
    <g mask="url(#mask24_12_639)">
        <mask id="mask25_12_639" style="mask-type:luminance" maskUnits="userSpaceOnUse" x="69" y="62" width="162" height="176">
            <path d="M69.4031 63.9501V236.05C69.4031 236.713 69.9375 237.25 70.6031 237.25H229.397C230.059 237.25 230.597 236.713 230.597 236.05V63.9501C230.597 63.2876 230.059 62.7501 229.397 62.7501H70.6031C69.9375 62.7501 69.4031 63.2876 69.4031 63.9501Z" fill="white"/>
        </mask>
        <g mask="url(#mask25_12_639)">
            <path d="M176.606 158.891C169.706 162.322 163.309 171.075 159.516 177.394C154.741 185.347 150.072 199.391 147.644 208.372C145.506 205.675 142.553 203.653 139.184 202.872C142.359 202.925 145.491 204.266 147.828 206.409C147.428 206.525 147.028 206.638 146.625 206.753C148.463 195.525 154.819 167.841 176.606 158.891C176.466 158.95 176.459 158.931 176.606 158.891Z" fill="#008080"/>
        </g>
    </g>
    <mask id="mask26_12_639" style="mask-type:luminance" maskUnits="userSpaceOnUse" x="116" y="121" width="11" height="9">
        <path d="M116 121.6H126.4V129.6H116V121.6Z" fill="white"/>
    </mask>
    <g mask="url(#mask26_12_639)">
        <mask id="mask27_12_639" style="mask-type:luminance" maskUnits="userSpaceOnUse" x="69" y="62" width="162" height="176">
            <path d="M69.4031 63.95V236.05C69.4031 236.713 69.9375 237.25 70.6031 237.25H229.397C230.059 237.25 230.597 236.713 230.597 236.05V63.95C230.597 63.2875 230.059 62.75 229.397 62.75H70.6031C69.9375 62.75 69.4031 63.2875 69.4031 63.95Z" fill="white"/>
        </mask>
        <g mask="url(#mask27_12_639)">
            <path d="M116.553 127.409C119.925 126.431 122.891 126.553 125.275 122.062C127.266 127.466 120.513 132.128 116.553 127.409Z" fill="#008080"/>
        </g>
    </g>
    <mask id="mask28_12_639" style="mask-type:luminance" maskUnits="userSpaceOnUse" x="100" y="156" width="8" height="8">
        <path d="M100.8 156H107.2V163.2H100.8V156Z" fill="white"/>
    </mask>
    <g mask="url(#mask28_12_639)">
        <mask id="mask29_12_639" style="mask-type:luminance" maskUnits="userSpaceOnUse" x="69" y="62" width="162" height="176">
            <path d="M69.4031 63.95V236.05C69.4031 236.713 69.9375 237.25 70.6031 237.25H229.397C230.059 237.25 230.597 236.713 230.597 236.05V63.95C230.597 63.2875 230.059 62.75 229.397 62.75H70.6031C69.9375 62.75 69.4031 63.2875 69.4031 63.95Z" fill="white"/>
        </mask>
        <g mask="url(#mask29_12_639)">
            <path d="M106.606 156.737C106.606 156.737 106.622 156.772 106.647 156.837C106.669 156.906 106.706 157.003 106.737 157.131C106.769 157.256 106.809 157.416 106.837 157.597C106.866 157.775 106.887 157.981 106.9 158.209C106.909 158.437 106.906 158.684 106.881 158.947C106.862 159.209 106.812 159.484 106.744 159.772C106.703 159.912 106.666 160.056 106.609 160.2C106.581 160.272 106.556 160.344 106.528 160.419C106.494 160.491 106.462 160.559 106.428 160.631C106.294 160.919 106.119 161.2 105.909 161.456C105.7 161.712 105.447 161.941 105.178 162.131C105.041 162.219 104.906 162.316 104.759 162.378C104.687 162.412 104.616 162.447 104.544 162.481C104.472 162.516 104.397 162.534 104.322 162.562C104.25 162.587 104.178 162.612 104.106 162.631C104.034 162.65 103.959 162.669 103.891 162.681C103.747 162.716 103.606 162.734 103.469 162.744C103.334 162.759 103.2 162.769 103.075 162.759C102.947 162.753 102.825 162.759 102.712 162.741C102.481 162.709 102.272 162.684 102.094 162.631C101.916 162.584 101.762 162.537 101.641 162.484C101.516 162.441 101.422 162.394 101.356 162.366C101.294 162.337 101.259 162.322 101.259 162.322C101.259 162.322 101.297 162.312 101.369 162.3C101.437 162.291 101.537 162.269 101.666 162.253C101.791 162.241 101.944 162.203 102.112 162.175C102.284 162.153 102.472 162.103 102.672 162.062C102.772 162.044 102.872 162.009 102.975 161.981C103.028 161.966 103.081 161.95 103.134 161.934C103.184 161.919 103.237 161.897 103.291 161.878C103.344 161.859 103.397 161.844 103.45 161.822C103.503 161.803 103.553 161.778 103.606 161.756C103.656 161.731 103.709 161.706 103.762 161.687C103.816 161.662 103.866 161.631 103.916 161.603C104.125 161.5 104.312 161.359 104.5 161.219C104.675 161.062 104.853 160.903 105.003 160.709C105.162 160.528 105.294 160.316 105.422 160.103C105.55 159.891 105.656 159.666 105.759 159.441C105.853 159.212 105.947 158.987 106.022 158.766C106.1 158.547 106.166 158.331 106.228 158.131C106.347 157.728 106.441 157.381 106.506 157.131C106.569 156.881 106.606 156.737 106.606 156.737Z" fill="#008080"/>
        </g>
    </g>
    <mask id="mask30_12_639" style="mask-type:luminance" maskUnits="userSpaceOnUse" x="84" y="163" width="7" height="8">
        <path d="M84.8 163.2H90.4V170.4H84.8V163.2Z" fill="white"/>
    </mask>
    <g mask="url(#mask30_12_639)">
        <mask id="mask31_12_639" style="mask-type:luminance" maskUnits="userSpaceOnUse" x="69" y="62" width="162" height="176">
            <path d="M69.4031 63.95V236.05C69.4031 236.713 69.9375 237.25 70.6031 237.25H229.397C230.059 237.25 230.597 236.713 230.597 236.05V63.95C230.597 63.2875 230.059 62.75 229.397 62.75H70.6031C69.9375 62.75 69.4031 63.2875 69.4031 63.95Z" fill="white"/>
        </mask>
        <g mask="url(#mask31_12_639)">
            <path d="M89.7782 170.278C82.6313 170.941 84.7219 159.756 89.6594 165.362C84.6594 163.216 86.25 169.019 89.7782 170.278Z" fill="#008080"/>
        </g>
    </g>
    <mask id="mask32_12_639" style="mask-type:luminance" maskUnits="userSpaceOnUse" x="77" y="140" width="17" height="7">
        <path d="M77.6 140.8H93.6V146.4H77.6V140.8Z" fill="white"/>
    </mask>
    <g mask="url(#mask32_12_639)">
        <mask id="mask33_12_639" style="mask-type:luminance" maskUnits="userSpaceOnUse" x="69" y="62" width="162" height="176">
            <path d="M69.4031 63.95V236.05C69.4031 236.713 69.9375 237.25 70.6031 237.25H229.397C230.059 237.25 230.597 236.713 230.597 236.05V63.95C230.597 63.2875 230.059 62.75 229.397 62.75H70.6031C69.9375 62.75 69.4031 63.2875 69.4031 63.95Z" fill="white"/>
        </mask>
        <g mask="url(#mask33_12_639)">
            <path d="M87.3781 145.4C83.6593 143.575 79.8124 144.619 77.6249 146.184C80.0249 141.653 88.7687 139.831 93.0687 142.859C93.0687 142.859 93.1718 143.434 93.0624 143.406C93.0906 143.412 87.3781 145.4 87.3781 145.4Z" fill="#008080"/>
        </g>
    </g>
    <mask id="mask34_12_639" style="mask-type:luminance" maskUnits="userSpaceOnUse" x="77" y="148" width="14" height="25">
        <path d="M77.6 148H90.4V172.8H77.6V148Z" fill="white"/>
    </mask>
    <g mask="url(#mask34_12_639)">
        <mask id="mask35_12_639" style="mask-type:luminance" maskUnits="userSpaceOnUse" x="69" y="62" width="162" height="176">
            <path d="M69.4031 63.95V236.05C69.4031 236.713 69.9375 237.25 70.6031 237.25H229.397C230.059 237.25 230.597 236.713 230.597 236.05V63.95C230.597 63.2875 230.059 62.75 229.397 62.75H70.6031C69.9375 62.75 69.4031 63.2875 69.4031 63.95Z" fill="white"/>
        </mask>
        <g mask="url(#mask35_12_639)">
            <path d="M89.7781 148.728C77.2 150.816 78.1062 164.016 83.1 172.147C75.5437 165.05 75.6812 147.525 89.7781 148.728Z" fill="#008080"/>
        </g>
    </g>
    <mask id="mask36_12_639" style="mask-type:luminance" maskUnits="userSpaceOnUse" x="74" y="142" width="42" height="38">
        <path d="M74.4 142.4H116V179.2H74.4V142.4Z" fill="white"/>
    </mask>
    <g mask="url(#mask36_12_639)">
        <mask id="mask37_12_639" style="mask-type:luminance" maskUnits="userSpaceOnUse" x="69" y="62" width="162" height="176">
            <path d="M69.4031 63.95V236.05C69.4031 236.713 69.9375 237.25 70.6031 237.25H229.397C230.059 237.25 230.597 236.713 230.597 236.05V63.95C230.597 63.2875 230.059 62.75 229.397 62.75H70.6031C69.9375 62.75 69.4031 63.2875 69.4031 63.95Z" fill="white"/>
        </mask>
        <g mask="url(#mask37_12_639)">
            <path d="M115.747 164.528C115.678 164.416 115.594 164.306 115.497 164.206C114.981 163.675 114.388 163.244 113.903 162.681C113.397 162.087 112.95 161.444 112.575 160.759C111.409 158.653 111.347 156.344 110.628 154.097C109.256 149.803 105.825 146.219 101.772 144.35C100.322 143.681 98.7875 143.203 97.2156 142.931C90.6531 141.806 83.4031 144.462 78.9656 149.403C76.6719 151.956 75.0094 155.191 74.6281 158.628C74.5563 159.353 74.5188 160.016 74.5344 160.616C74.55 161.816 74.7063 162.741 74.8219 163.366C74.8781 163.678 74.9438 163.909 74.9781 164.072C75.0156 164.228 75.0344 164.312 75.0344 164.312C75.0344 164.312 75.0281 164.228 75.0125 164.066C75 163.903 74.9719 163.659 74.9531 163.347C74.9125 162.719 74.8969 161.794 75 160.634C75.2844 157.397 76.75 154.244 78.8188 151.747C81.5625 148.437 85.5625 146.262 89.7344 145.353C92.0781 144.85 94.5875 144.747 97.025 145.206C101.069 145.972 104.694 148.397 106.941 151.844C107.675 152.972 108.259 154.194 108.681 155.472C109.094 156.722 109.234 158.041 109.659 159.287C110.35 161.312 111.5 163.184 113.075 164.644C113.313 164.862 113.563 165.075 113.819 165.275C113.794 165.3 112.413 166.931 112.444 167.544C112.469 167.981 113.628 168.834 113.466 169.825C113.281 170.928 113.044 172.037 112.556 173.05C112.056 174.087 111.303 174.925 110.388 175.612C109.413 176.341 108.303 176.884 107.194 177.378C106.059 177.884 102.813 178.887 102.3 179.078C104.772 178.747 107.313 178.219 109.581 177.153C110.516 176.716 111.347 176.1 112.2 175.519C114.706 173.806 115.116 169.959 115.028 169.337C114.947 168.734 114.553 168.234 114.269 167.709C114.244 167.659 114.169 167.556 114.169 167.5C114.172 167.431 114.266 167.369 114.313 167.325C114.613 167.041 114.916 166.759 115.206 166.462C115.5 166.166 115.791 165.822 115.891 165.403C115.969 165.087 115.9 164.791 115.747 164.528Z" fill="#008080"/>
        </g>
    </g>
    <mask id="mask38_12_639" style="mask-type:luminance" maskUnits="userSpaceOnUse" x="100" y="104" width="49" height="50">
        <path d="M100 104.8H148.8V153.6H100V104.8Z" fill="white"/>
    </mask>
    <g mask="url(#mask38_12_639)">
        <mask id="mask39_12_639" style="mask-type:luminance" maskUnits="userSpaceOnUse" x="69" y="62" width="162" height="176">
            <path d="M69.4031 63.95V236.05C69.4031 236.713 69.9375 237.25 70.6031 237.25H229.397C230.059 237.25 230.597 236.713 230.597 236.05V63.95C230.597 63.2875 230.059 62.75 229.397 62.75H70.6031C69.9375 62.75 69.4031 63.2875 69.4031 63.95Z" fill="white"/>
        </mask>
        <g mask="url(#mask39_12_639)">
            <path d="M132.744 150.309C128.881 148.5 128.525 144.116 123.906 143.894C123.766 139.947 123.184 140.497 120.275 141.656C118.719 138.944 116.553 138.603 114.581 138.922C114.241 135.822 115.122 131.956 113.572 128.75C108.934 119.144 100.372 118.291 100.794 105.319C98.075 117.881 107.047 120.222 111.269 129.847C112.541 132.747 112.672 138.672 112.738 140.884C112.756 141.562 113.366 142.456 113.966 142.15C116.759 140.706 117.494 140.9 118.5 143.862C118.628 144.25 119.119 144.391 119.519 144.303C120.013 144.191 120.759 143.912 121.791 143.269C122.178 145.037 120.869 145.647 123.953 145.769C126.25 145.859 128.059 151.469 134.813 152.787C138.366 153.484 144.203 150.637 148.631 144.15C143.953 148.372 138.966 153.222 132.744 150.309Z" fill="#008080"/>
        </g>
    </g>
    <mask id="mask40_12_639" style="mask-type:luminance" maskUnits="userSpaceOnUse" x="89" y="129" width="11" height="10">
        <path d="M89.2844 129.619H99.5906V138.659H89.2844V129.619Z" fill="white"/>
    </mask>
    <g mask="url(#mask40_12_639)">
        <mask id="mask41_12_639" style="mask-type:luminance" maskUnits="userSpaceOnUse" x="89" y="129" width="11" height="10">
            <path d="M89.6938 131.091C88.8594 132.466 89.4469 133.803 90.1844 134.513L94.5031 138.659L98.7344 134.528C99.4219 133.766 99.6844 132.953 99.5375 132.053C99.3344 130.803 98.3063 129.834 97.0375 129.697C96.2563 129.613 95.5031 129.834 94.9156 130.322C94.7594 130.453 94.6156 130.6 94.4938 130.759C94.3469 130.578 94.175 130.413 93.9813 130.266C93.3063 129.75 92.4469 129.547 91.6188 129.706C90.8375 129.856 90.1344 130.363 89.6938 131.091Z" fill="white"/>
        </mask>
        <g mask="url(#mask41_12_639)">
            <path d="M89.2844 129.653H99.5906V138.659H89.2844V129.653Z" fill="#008080"/>
        </g>
    </g>
</svg>
